<mxfile host="app.diagrams.net" agent="Mozilla/5.0 (Windows NT 10.0; Win64; x64) AppleWebKit/537.36 (KHTML, like Gecko) Chrome/138.0.0.0 Safari/537.36" version="27.2.0">
  <diagram name="Page-1" id="FtsiylGwNPp-K53xbYh9">
    <mxGraphModel dx="3613" dy="1805" grid="1" gridSize="10" guides="1" tooltips="1" connect="1" arrows="1" fold="1" page="1" pageScale="1" pageWidth="850" pageHeight="1100" math="0" shadow="0">
      <root>
        <mxCell id="0" />
        <mxCell id="1" parent="0" />
        <mxCell id="e0KaFhFMwG1i1UtGkUaY-3" value="" style="rounded=0;whiteSpace=wrap;html=1;strokeWidth=4;movable=1;resizable=1;rotatable=1;deletable=1;editable=1;locked=0;connectable=1;" parent="1" vertex="1">
          <mxGeometry x="300" y="50" width="545" height="2120" as="geometry" />
        </mxCell>
        <mxCell id="e0KaFhFMwG1i1UtGkUaY-11" value="" style="rounded=0;whiteSpace=wrap;html=1;strokeWidth=4;movable=1;resizable=1;rotatable=1;deletable=1;editable=1;locked=0;connectable=1;" parent="1" vertex="1">
          <mxGeometry x="845" y="50" width="535" height="2120" as="geometry" />
        </mxCell>
        <mxCell id="e0KaFhFMwG1i1UtGkUaY-12" value="" style="endArrow=none;html=1;rounded=0;exitX=0.003;exitY=0.114;exitDx=0;exitDy=0;exitPerimeter=0;entryX=1.005;entryY=0.113;entryDx=0;entryDy=0;entryPerimeter=0;strokeWidth=4;" parent="1" edge="1">
          <mxGeometry width="50" height="50" relative="1" as="geometry">
            <mxPoint x="290.005" y="151.82000000000002" as="sourcePoint" />
            <mxPoint x="1371.045" y="150.00000000000009" as="targetPoint" />
          </mxGeometry>
        </mxCell>
        <mxCell id="e0KaFhFMwG1i1UtGkUaY-13" value="&lt;font style=&quot;font-size: 40px;&quot; face=&quot;Times New Roman&quot;&gt;ADMIN&lt;/font&gt;" style="text;html=1;align=center;verticalAlign=middle;whiteSpace=wrap;rounded=0;" parent="1" vertex="1">
          <mxGeometry x="465.63" y="100" width="195" height="30" as="geometry" />
        </mxCell>
        <mxCell id="e0KaFhFMwG1i1UtGkUaY-15" value="&lt;font style=&quot;font-size: 40px;&quot; face=&quot;Times New Roman&quot;&gt;SYSTEM&lt;/font&gt;" style="text;html=1;align=center;verticalAlign=middle;whiteSpace=wrap;rounded=0;" parent="1" vertex="1">
          <mxGeometry x="1015.0000000000001" y="100" width="195" height="30" as="geometry" />
        </mxCell>
        <mxCell id="e0KaFhFMwG1i1UtGkUaY-19" value="" style="rhombus;whiteSpace=wrap;html=1;strokeWidth=4;" parent="1" vertex="1">
          <mxGeometry x="475" y="750" width="140" height="140" as="geometry" />
        </mxCell>
        <mxCell id="e0KaFhFMwG1i1UtGkUaY-25" value="" style="endArrow=classic;html=1;rounded=0;exitX=1;exitY=0.5;exitDx=0;exitDy=0;entryX=0;entryY=0.5;entryDx=0;entryDy=0;" parent="1" source="e0KaFhFMwG1i1UtGkUaY-19" target="e0KaFhFMwG1i1UtGkUaY-26" edge="1">
          <mxGeometry width="50" height="50" relative="1" as="geometry">
            <mxPoint x="650" y="762.28" as="sourcePoint" />
            <mxPoint x="990" y="832.28" as="targetPoint" />
          </mxGeometry>
        </mxCell>
        <mxCell id="e0KaFhFMwG1i1UtGkUaY-38" value="&lt;font style=&quot;font-size: 23px;&quot;&gt;BENAR&lt;/font&gt;" style="edgeLabel;html=1;align=center;verticalAlign=middle;resizable=0;points=[];" parent="e0KaFhFMwG1i1UtGkUaY-25" vertex="1" connectable="0">
          <mxGeometry x="-0.4968" y="-1" relative="1" as="geometry">
            <mxPoint x="21" y="-1" as="offset" />
          </mxGeometry>
        </mxCell>
        <mxCell id="e0KaFhFMwG1i1UtGkUaY-26" value="&lt;font style=&quot;font-size: 25px;&quot;&gt;MENAMPILKAN DASHBOARD&lt;/font&gt;&lt;div&gt;&lt;font style=&quot;font-size: 25px;&quot;&gt;&amp;nbsp;DAN SIDE BAR ADMIN&lt;/font&gt;&lt;/div&gt;" style="rounded=1;whiteSpace=wrap;html=1;strokeWidth=4;" parent="1" vertex="1">
          <mxGeometry x="998.12" y="738.86" width="336.88" height="162.28" as="geometry" />
        </mxCell>
        <mxCell id="e0KaFhFMwG1i1UtGkUaY-28" value="" style="endArrow=classic;html=1;rounded=0;exitX=0.5;exitY=1;exitDx=0;exitDy=0;entryX=0.975;entryY=0.375;entryDx=0;entryDy=0;entryPerimeter=0;" parent="1" source="e0KaFhFMwG1i1UtGkUaY-26" target="e0KaFhFMwG1i1UtGkUaY-29" edge="1">
          <mxGeometry width="50" height="50" relative="1" as="geometry">
            <mxPoint x="730" y="682.28" as="sourcePoint" />
            <mxPoint x="1055" y="902.28" as="targetPoint" />
            <Array as="points">
              <mxPoint x="1167" y="975" />
            </Array>
          </mxGeometry>
        </mxCell>
        <mxCell id="e0KaFhFMwG1i1UtGkUaY-29" value="&lt;font style=&quot;font-size: 27px;&quot;&gt;MENGAKSES KELOLA KEDAI KOPI&lt;/font&gt;" style="rounded=1;whiteSpace=wrap;html=1;strokeWidth=4;" parent="1" vertex="1">
          <mxGeometry x="385.15" y="920" width="319.69" height="147.72" as="geometry" />
        </mxCell>
        <mxCell id="e0KaFhFMwG1i1UtGkUaY-30" value="&lt;font style=&quot;font-size: 34px;&quot;&gt;MENGAKSES&lt;/font&gt;&lt;div&gt;&lt;font style=&quot;font-size: 34px;&quot;&gt;WEBSITE&lt;/font&gt;&lt;/div&gt;" style="rounded=1;whiteSpace=wrap;html=1;strokeColor=#330000;strokeWidth=4;" parent="1" vertex="1">
          <mxGeometry x="425" y="350" width="266.87" height="142.28" as="geometry" />
        </mxCell>
        <mxCell id="e0KaFhFMwG1i1UtGkUaY-32" value="" style="endArrow=classic;html=1;rounded=0;exitX=1;exitY=0.5;exitDx=0;exitDy=0;entryX=0;entryY=0.5;entryDx=0;entryDy=0;" parent="1" source="e0KaFhFMwG1i1UtGkUaY-30" target="uGZmFAZR-_rZf5kj_rKz-3" edge="1">
          <mxGeometry width="50" height="50" relative="1" as="geometry">
            <mxPoint x="760" y="502.28" as="sourcePoint" />
            <mxPoint x="987.81" y="491.1399999999999" as="targetPoint" />
          </mxGeometry>
        </mxCell>
        <mxCell id="e0KaFhFMwG1i1UtGkUaY-33" value="" style="endArrow=classic;html=1;rounded=0;exitX=0.5;exitY=1;exitDx=0;exitDy=0;entryX=1;entryY=0.5;entryDx=0;entryDy=0;" parent="1" source="uGZmFAZR-_rZf5kj_rKz-3" target="e0KaFhFMwG1i1UtGkUaY-34" edge="1">
          <mxGeometry width="50" height="50" relative="1" as="geometry">
            <mxPoint x="1103.745" y="541.1399999999999" as="sourcePoint" />
            <mxPoint x="878" y="592.28" as="targetPoint" />
            <Array as="points">
              <mxPoint x="1167" y="610" />
            </Array>
          </mxGeometry>
        </mxCell>
        <mxCell id="e0KaFhFMwG1i1UtGkUaY-34" value="&lt;font style=&quot;font-size: 24px;&quot;&gt;MEMASUKKAN USERNAME DAN PASSWORD&lt;/font&gt;" style="rounded=1;whiteSpace=wrap;html=1;strokeColor=#330000;strokeWidth=4;" parent="1" vertex="1">
          <mxGeometry x="434.38" y="540" width="257.5" height="152.28" as="geometry" />
        </mxCell>
        <mxCell id="e0KaFhFMwG1i1UtGkUaY-35" value="" style="endArrow=classic;html=1;rounded=0;exitX=0.428;exitY=0.982;exitDx=0;exitDy=0;entryX=0.5;entryY=0;entryDx=0;entryDy=0;exitPerimeter=0;" parent="1" source="e0KaFhFMwG1i1UtGkUaY-34" target="e0KaFhFMwG1i1UtGkUaY-19" edge="1">
          <mxGeometry width="50" height="50" relative="1" as="geometry">
            <mxPoint x="1081.88" y="872.28" as="sourcePoint" />
            <mxPoint x="1289.88" y="872.28" as="targetPoint" />
          </mxGeometry>
        </mxCell>
        <mxCell id="e0KaFhFMwG1i1UtGkUaY-36" value="" style="endArrow=classic;html=1;rounded=0;exitX=0;exitY=0.5;exitDx=0;exitDy=0;entryX=0;entryY=0.5;entryDx=0;entryDy=0;" parent="1" source="e0KaFhFMwG1i1UtGkUaY-19" edge="1" target="e0KaFhFMwG1i1UtGkUaY-34">
          <mxGeometry width="50" height="50" relative="1" as="geometry">
            <mxPoint x="671.88" y="822.28" as="sourcePoint" />
            <mxPoint x="466" y="692.28" as="targetPoint" />
            <Array as="points">
              <mxPoint x="392" y="820" />
              <mxPoint x="392" y="616" />
            </Array>
          </mxGeometry>
        </mxCell>
        <mxCell id="e0KaFhFMwG1i1UtGkUaY-37" value="&lt;font style=&quot;font-size: 23px;&quot;&gt;SALAH&lt;/font&gt;" style="edgeLabel;html=1;align=center;verticalAlign=middle;resizable=0;points=[];" parent="e0KaFhFMwG1i1UtGkUaY-36" vertex="1" connectable="0">
          <mxGeometry x="-0.0082" y="-3" relative="1" as="geometry">
            <mxPoint as="offset" />
          </mxGeometry>
        </mxCell>
        <mxCell id="uGZmFAZR-_rZf5kj_rKz-7" value="" style="edgeStyle=orthogonalEdgeStyle;rounded=0;orthogonalLoop=1;jettySize=auto;html=1;exitX=0.5;exitY=1;exitDx=0;exitDy=0;" edge="1" parent="1" source="e0KaFhFMwG1i1UtGkUaY-40" target="uGZmFAZR-_rZf5kj_rKz-6">
          <mxGeometry relative="1" as="geometry" />
        </mxCell>
        <mxCell id="e0KaFhFMwG1i1UtGkUaY-40" value="&lt;font style=&quot;font-size: 26px;&quot;&gt;MENAMPILKAN HALAMAN KELOLA KEDAI KOPI&lt;/font&gt;" style="whiteSpace=wrap;html=1;rounded=1;strokeWidth=4;" parent="1" vertex="1">
          <mxGeometry x="1019.6899999999999" y="1000" width="293.75" height="167.72" as="geometry" />
        </mxCell>
        <mxCell id="e0KaFhFMwG1i1UtGkUaY-66" value="" style="endArrow=classic;html=1;rounded=0;exitX=0.5;exitY=1;exitDx=0;exitDy=0;entryX=-0.008;entryY=0.669;entryDx=0;entryDy=0;entryPerimeter=0;" parent="1" source="e0KaFhFMwG1i1UtGkUaY-29" target="e0KaFhFMwG1i1UtGkUaY-40" edge="1">
          <mxGeometry width="50" height="50" relative="1" as="geometry">
            <mxPoint x="1159.6800000000003" y="1540" as="sourcePoint" />
            <mxPoint x="1221.87" y="1310" as="targetPoint" />
            <Array as="points">
              <mxPoint x="545" y="1110" />
            </Array>
          </mxGeometry>
        </mxCell>
        <mxCell id="uGZmFAZR-_rZf5kj_rKz-1" value="" style="ellipse;whiteSpace=wrap;html=1;aspect=fixed;gradientColor=none;fillColor=#330000;" vertex="1" parent="1">
          <mxGeometry x="523.13" y="230" width="80" height="80" as="geometry" />
        </mxCell>
        <mxCell id="uGZmFAZR-_rZf5kj_rKz-2" value="" style="endArrow=classic;html=1;rounded=0;exitX=0.5;exitY=1;exitDx=0;exitDy=0;entryX=0.517;entryY=-0.005;entryDx=0;entryDy=0;entryPerimeter=0;" edge="1" parent="1" source="uGZmFAZR-_rZf5kj_rKz-1" target="e0KaFhFMwG1i1UtGkUaY-30">
          <mxGeometry width="50" height="50" relative="1" as="geometry">
            <mxPoint x="520" y="570" as="sourcePoint" />
            <mxPoint x="563" y="420" as="targetPoint" />
          </mxGeometry>
        </mxCell>
        <mxCell id="uGZmFAZR-_rZf5kj_rKz-3" value="&lt;span style=&quot;font-size: 34px;&quot;&gt;MENAMPILKAN HALAMAN LOGIN&lt;/span&gt;" style="rounded=1;whiteSpace=wrap;html=1;strokeColor=#330000;strokeWidth=4;" vertex="1" parent="1">
          <mxGeometry x="1000" y="350" width="333.12" height="142.28" as="geometry" />
        </mxCell>
        <mxCell id="uGZmFAZR-_rZf5kj_rKz-9" value="" style="edgeStyle=orthogonalEdgeStyle;rounded=0;orthogonalLoop=1;jettySize=auto;html=1;" edge="1" parent="1" source="uGZmFAZR-_rZf5kj_rKz-6" target="uGZmFAZR-_rZf5kj_rKz-8">
          <mxGeometry relative="1" as="geometry" />
        </mxCell>
        <mxCell id="uGZmFAZR-_rZf5kj_rKz-6" value="&lt;font style=&quot;font-size: 26px;&quot;&gt;MENGISI FORM TAMBAH KEDAI&lt;/font&gt;" style="whiteSpace=wrap;html=1;rounded=1;strokeWidth=4;" vertex="1" parent="1">
          <mxGeometry x="385.15" y="1210" width="293.75" height="167.72" as="geometry" />
        </mxCell>
        <mxCell id="uGZmFAZR-_rZf5kj_rKz-8" value="&lt;font style=&quot;font-size: 26px;&quot;&gt;MENAMPILKAN SEMUA LIST TEMPAT KOPI YANG SUDAH TERDAFTAR&lt;/font&gt;" style="whiteSpace=wrap;html=1;rounded=1;strokeWidth=4;" vertex="1" parent="1">
          <mxGeometry x="910" y="1210" width="443.12" height="167.72" as="geometry" />
        </mxCell>
        <mxCell id="uGZmFAZR-_rZf5kj_rKz-12" value="" style="whiteSpace=wrap;html=1;rounded=1;strokeWidth=4;" vertex="1" parent="1">
          <mxGeometry x="330.63" y="1480" width="483.75" height="30" as="geometry" />
        </mxCell>
        <mxCell id="uGZmFAZR-_rZf5kj_rKz-13" value="" style="endArrow=classic;html=1;rounded=0;exitX=0.25;exitY=1;exitDx=0;exitDy=0;entryX=0.5;entryY=0;entryDx=0;entryDy=0;" edge="1" parent="1" source="uGZmFAZR-_rZf5kj_rKz-8" target="uGZmFAZR-_rZf5kj_rKz-12">
          <mxGeometry width="50" height="50" relative="1" as="geometry">
            <mxPoint x="680" y="1620" as="sourcePoint" />
            <mxPoint x="730" y="1570" as="targetPoint" />
            <Array as="points">
              <mxPoint x="1021" y="1420" />
              <mxPoint x="573" y="1420" />
            </Array>
          </mxGeometry>
        </mxCell>
        <mxCell id="uGZmFAZR-_rZf5kj_rKz-16" value="" style="endArrow=classic;html=1;rounded=0;exitX=0.772;exitY=1.226;exitDx=0;exitDy=0;exitPerimeter=0;" edge="1" parent="1">
          <mxGeometry width="50" height="50" relative="1" as="geometry">
            <mxPoint x="704.9249999999998" y="1510" as="sourcePoint" />
            <mxPoint x="704.84" y="1553.22" as="targetPoint" />
          </mxGeometry>
        </mxCell>
        <mxCell id="uGZmFAZR-_rZf5kj_rKz-17" value="" style="endArrow=classic;html=1;rounded=0;exitX=0.772;exitY=1.226;exitDx=0;exitDy=0;exitPerimeter=0;" edge="1" parent="1">
          <mxGeometry width="50" height="50" relative="1" as="geometry">
            <mxPoint x="460" y="1510" as="sourcePoint" />
            <mxPoint x="460" y="1553" as="targetPoint" />
          </mxGeometry>
        </mxCell>
        <mxCell id="uGZmFAZR-_rZf5kj_rKz-28" value="" style="edgeStyle=orthogonalEdgeStyle;rounded=0;orthogonalLoop=1;jettySize=auto;html=1;" edge="1" parent="1" source="uGZmFAZR-_rZf5kj_rKz-19" target="uGZmFAZR-_rZf5kj_rKz-27">
          <mxGeometry relative="1" as="geometry" />
        </mxCell>
        <mxCell id="uGZmFAZR-_rZf5kj_rKz-19" value="&lt;span style=&quot;font-size: 26px;&quot;&gt;MENGEDIT KEDAI KOPI&lt;/span&gt;" style="whiteSpace=wrap;html=1;rounded=1;strokeWidth=4;" vertex="1" parent="1">
          <mxGeometry x="340" y="1560" width="220" height="114" as="geometry" />
        </mxCell>
        <mxCell id="uGZmFAZR-_rZf5kj_rKz-22" value="" style="edgeStyle=orthogonalEdgeStyle;rounded=0;orthogonalLoop=1;jettySize=auto;html=1;" edge="1" parent="1" source="uGZmFAZR-_rZf5kj_rKz-20" target="uGZmFAZR-_rZf5kj_rKz-21">
          <mxGeometry relative="1" as="geometry" />
        </mxCell>
        <mxCell id="uGZmFAZR-_rZf5kj_rKz-20" value="&lt;font style=&quot;font-size: 26px;&quot;&gt;MENGHAPUS&lt;/font&gt;&lt;div&gt;&lt;font style=&quot;font-size: 26px;&quot;&gt;KEDAI KOPI&lt;/font&gt;&lt;/div&gt;" style="whiteSpace=wrap;html=1;rounded=1;strokeWidth=4;" vertex="1" parent="1">
          <mxGeometry x="590" y="1560" width="210" height="114" as="geometry" />
        </mxCell>
        <mxCell id="uGZmFAZR-_rZf5kj_rKz-21" value="&lt;span style=&quot;font-size: 26px;&quot;&gt;MENAMPILKAN ALERT UNTUK MENGHAPUS&lt;/span&gt;" style="whiteSpace=wrap;html=1;rounded=1;strokeWidth=4;" vertex="1" parent="1">
          <mxGeometry x="890" y="1560" width="210" height="114" as="geometry" />
        </mxCell>
        <mxCell id="uGZmFAZR-_rZf5kj_rKz-32" value="" style="edgeStyle=orthogonalEdgeStyle;rounded=0;orthogonalLoop=1;jettySize=auto;html=1;" edge="1" parent="1" source="uGZmFAZR-_rZf5kj_rKz-24" target="uGZmFAZR-_rZf5kj_rKz-31">
          <mxGeometry relative="1" as="geometry" />
        </mxCell>
        <mxCell id="uGZmFAZR-_rZf5kj_rKz-33" value="&lt;font style=&quot;font-size: 26px;&quot;&gt;IYA&lt;/font&gt;" style="edgeLabel;html=1;align=center;verticalAlign=middle;resizable=0;points=[];" vertex="1" connectable="0" parent="uGZmFAZR-_rZf5kj_rKz-32">
          <mxGeometry x="-0.4444" y="2" relative="1" as="geometry">
            <mxPoint as="offset" />
          </mxGeometry>
        </mxCell>
        <mxCell id="uGZmFAZR-_rZf5kj_rKz-24" value="" style="rhombus;whiteSpace=wrap;html=1;strokeWidth=4;" vertex="1" parent="1">
          <mxGeometry x="1150" y="1572" width="100" height="90" as="geometry" />
        </mxCell>
        <mxCell id="uGZmFAZR-_rZf5kj_rKz-25" value="" style="edgeStyle=orthogonalEdgeStyle;rounded=0;orthogonalLoop=1;jettySize=auto;html=1;exitX=1;exitY=0.5;exitDx=0;exitDy=0;entryX=0;entryY=0.5;entryDx=0;entryDy=0;" edge="1" parent="1" source="uGZmFAZR-_rZf5kj_rKz-21" target="uGZmFAZR-_rZf5kj_rKz-24">
          <mxGeometry relative="1" as="geometry">
            <mxPoint x="1120" y="1590" as="sourcePoint" />
            <mxPoint x="1210" y="1590" as="targetPoint" />
          </mxGeometry>
        </mxCell>
        <mxCell id="uGZmFAZR-_rZf5kj_rKz-26" value="" style="edgeStyle=orthogonalEdgeStyle;rounded=0;orthogonalLoop=1;jettySize=auto;html=1;exitX=0.5;exitY=0;exitDx=0;exitDy=0;entryX=0.655;entryY=0.994;entryDx=0;entryDy=0;entryPerimeter=0;" edge="1" parent="1" source="uGZmFAZR-_rZf5kj_rKz-24" target="uGZmFAZR-_rZf5kj_rKz-8">
          <mxGeometry relative="1" as="geometry">
            <mxPoint x="1190" y="1480" as="sourcePoint" />
            <mxPoint x="1240" y="1480" as="targetPoint" />
          </mxGeometry>
        </mxCell>
        <mxCell id="uGZmFAZR-_rZf5kj_rKz-30" value="" style="edgeStyle=orthogonalEdgeStyle;rounded=0;orthogonalLoop=1;jettySize=auto;html=1;" edge="1" parent="1" source="uGZmFAZR-_rZf5kj_rKz-27" target="uGZmFAZR-_rZf5kj_rKz-29">
          <mxGeometry relative="1" as="geometry" />
        </mxCell>
        <mxCell id="uGZmFAZR-_rZf5kj_rKz-27" value="&lt;font style=&quot;font-size: 26px;&quot;&gt;MENGISI FORM EDIT&lt;/font&gt;" style="whiteSpace=wrap;html=1;rounded=1;strokeWidth=4;" vertex="1" parent="1">
          <mxGeometry x="340" y="1754" width="220" height="114" as="geometry" />
        </mxCell>
        <mxCell id="uGZmFAZR-_rZf5kj_rKz-29" value="&lt;font style=&quot;font-size: 26px;&quot;&gt;MENGUBAH ISI KEDAI KOPI&lt;/font&gt;" style="whiteSpace=wrap;html=1;rounded=1;strokeWidth=4;" vertex="1" parent="1">
          <mxGeometry x="890" y="1754" width="170" height="114" as="geometry" />
        </mxCell>
        <mxCell id="uGZmFAZR-_rZf5kj_rKz-31" value="&lt;font style=&quot;font-size: 24px;&quot;&gt;MENGHAPUS KEDAI&amp;nbsp;&lt;/font&gt;&lt;div&gt;&lt;font style=&quot;font-size: 24px;&quot;&gt;KOPI&lt;/font&gt;&lt;/div&gt;" style="rounded=1;whiteSpace=wrap;html=1;strokeWidth=4;" vertex="1" parent="1">
          <mxGeometry x="1117.5" y="1758" width="165" height="110" as="geometry" />
        </mxCell>
        <mxCell id="uGZmFAZR-_rZf5kj_rKz-34" value="" style="edgeStyle=orthogonalEdgeStyle;rounded=0;orthogonalLoop=1;jettySize=auto;html=1;exitX=0.5;exitY=1;exitDx=0;exitDy=0;entryX=0.865;entryY=0.976;entryDx=0;entryDy=0;entryPerimeter=0;" edge="1" parent="1" source="uGZmFAZR-_rZf5kj_rKz-29" target="uGZmFAZR-_rZf5kj_rKz-8">
          <mxGeometry relative="1" as="geometry">
            <mxPoint x="990" y="1890" as="sourcePoint" />
            <mxPoint x="1320" y="1890" as="targetPoint" />
            <Array as="points">
              <mxPoint x="975" y="1930" />
              <mxPoint x="1293" y="1930" />
            </Array>
          </mxGeometry>
        </mxCell>
        <mxCell id="uGZmFAZR-_rZf5kj_rKz-35" value="&lt;font style=&quot;font-size: 34px;&quot;&gt;START&lt;/font&gt;" style="text;html=1;align=center;verticalAlign=middle;whiteSpace=wrap;rounded=0;" vertex="1" parent="1">
          <mxGeometry x="509.06" y="180" width="126.87" height="30" as="geometry" />
        </mxCell>
        <mxCell id="uGZmFAZR-_rZf5kj_rKz-38" value="" style="ellipse;html=1;shape=endState;fillColor=#000000;strokeColor=#ff0000;" vertex="1" parent="1">
          <mxGeometry x="496.71000000000004" y="2010" width="96.56" height="90" as="geometry" />
        </mxCell>
        <mxCell id="uGZmFAZR-_rZf5kj_rKz-41" value="" style="edgeStyle=orthogonalEdgeStyle;rounded=0;orthogonalLoop=1;jettySize=auto;html=1;exitX=0.928;exitY=0.999;exitDx=0;exitDy=0;entryX=0.5;entryY=0;entryDx=0;entryDy=0;exitPerimeter=0;" edge="1" parent="1" source="uGZmFAZR-_rZf5kj_rKz-8" target="uGZmFAZR-_rZf5kj_rKz-38">
          <mxGeometry relative="1" as="geometry">
            <mxPoint x="1260" y="2175" as="sourcePoint" />
            <mxPoint x="1260" y="1980" as="targetPoint" />
            <Array as="points">
              <mxPoint x="1321" y="1970" />
              <mxPoint x="545" y="1970" />
            </Array>
          </mxGeometry>
        </mxCell>
        <mxCell id="uGZmFAZR-_rZf5kj_rKz-42" value="&lt;font style=&quot;font-size: 34px;&quot;&gt;END&lt;/font&gt;" style="text;html=1;align=center;verticalAlign=middle;whiteSpace=wrap;rounded=0;" vertex="1" parent="1">
          <mxGeometry x="481.5599999999999" y="2110" width="126.87" height="30" as="geometry" />
        </mxCell>
      </root>
    </mxGraphModel>
  </diagram>
</mxfile>
